<svg xmlns="http://www.w3.org/2000/svg" viewBox="0 0 1280 320" width="1280" height="320">
  <defs>
    <!-- ============================================ -->
    <!-- BACKGROUND GRADIENTS                         -->
    <!-- ============================================ -->

    <!-- Main background gradient -->
    <linearGradient id="bgGrad" x1="0" y1="0" x2="1" y2="1">
      <stop offset="0%" stop-color="#0E0E12"/>
      <stop offset="100%" stop-color="#0A0A0F"/>
    </linearGradient>

    <!-- Radial depth overlay -->
    <radialGradient id="depthGlow" cx="35%" cy="50%" r="45%">
      <stop offset="0%" stop-color="#1A1A30" stop-opacity="0.55"/>
      <stop offset="100%" stop-color="#1A1A30" stop-opacity="0"/>
    </radialGradient>

    <!-- Grid pattern 80px intervals -->
    <pattern id="bgGrid" width="80" height="80" patternUnits="userSpaceOnUse">
      <line x1="0" y1="0" x2="80" y2="0" stroke="#1A1A22" stroke-width="0.5" opacity="0.4"/>
      <line x1="0" y1="0" x2="0" y2="80" stroke="#1A1A22" stroke-width="0.5" opacity="0.4"/>
    </pattern>

    <!-- ============================================ -->
    <!-- HEX LOGO GRADIENTS                           -->
    <!-- ============================================ -->

    <!-- Hex fill gradient -->
    <linearGradient id="hexBgGrad" x1="0" y1="0" x2="0" y2="1">
      <stop offset="0%" stop-color="#0E0E12"/>
      <stop offset="100%" stop-color="#08080C"/>
    </linearGradient>

    <!-- Hex border: lit from above -->
    <linearGradient id="hexBorderGrad" x1="0.5" y1="0" x2="0.5" y2="1">
      <stop offset="0%" stop-color="#4DD9FF" stop-opacity="0.50"/>
      <stop offset="35%" stop-color="#4DD9FF" stop-opacity="0.32"/>
      <stop offset="65%" stop-color="#4DD9FF" stop-opacity="0.20"/>
      <stop offset="100%" stop-color="#4DD9FF" stop-opacity="0.15"/>
    </linearGradient>

    <!-- Curve stroke gradient -->
    <linearGradient id="curveGrad" x1="0" y1="0" x2="1" y2="0">
      <stop offset="0%" stop-color="#3AB8DD"/>
      <stop offset="25%" stop-color="#4DD9FF"/>
      <stop offset="60%" stop-color="#6AE4FF"/>
      <stop offset="100%" stop-color="#4DD9FF"/>
    </linearGradient>

    <!-- Area fill under curve -->
    <linearGradient id="areaFill" x1="0" y1="0" x2="0" y2="1">
      <stop offset="0%" stop-color="#4DD9FF" stop-opacity="0.10"/>
      <stop offset="50%" stop-color="#4DD9FF" stop-opacity="0.04"/>
      <stop offset="100%" stop-color="#4DD9FF" stop-opacity="0"/>
    </linearGradient>

    <!-- Control point radial glow - cyan -->
    <radialGradient id="pointGlowCyan" cx="50%" cy="50%" r="50%">
      <stop offset="0%" stop-color="#4DD9FF" stop-opacity="0.55"/>
      <stop offset="50%" stop-color="#4DD9FF" stop-opacity="0.15"/>
      <stop offset="100%" stop-color="#4DD9FF" stop-opacity="0"/>
    </radialGradient>

    <!-- Control point radial glow - gold -->
    <radialGradient id="pointGlowGold" cx="50%" cy="50%" r="50%">
      <stop offset="0%" stop-color="#FFD94D" stop-opacity="0.60"/>
      <stop offset="50%" stop-color="#FFD94D" stop-opacity="0.18"/>
      <stop offset="100%" stop-color="#FFD94D" stop-opacity="0"/>
    </radialGradient>

    <!-- Inner vignette for hex depth -->
    <radialGradient id="innerVignette" cx="50%" cy="45%" r="55%">
      <stop offset="0%" stop-color="#0E0E12" stop-opacity="0"/>
      <stop offset="70%" stop-color="#000000" stop-opacity="0.15"/>
      <stop offset="100%" stop-color="#000000" stop-opacity="0.50"/>
    </radialGradient>

    <!-- Top-face highlight inside hex -->
    <linearGradient id="topHighlight" x1="0" y1="0" x2="0" y2="1">
      <stop offset="0%" stop-color="#4DD9FF" stop-opacity="0.06"/>
      <stop offset="25%" stop-color="#4DD9FF" stop-opacity="0"/>
    </linearGradient>

    <!-- Text glow gradient for title -->
    <linearGradient id="titleGrad" x1="0" y1="0" x2="1" y2="0">
      <stop offset="0%" stop-color="#4DD9FF"/>
      <stop offset="100%" stop-color="#4DD9FF"/>
    </linearGradient>

    <!-- ============================================ -->
    <!-- FILTERS                                      -->
    <!-- ============================================ -->

    <!-- Wide ambient glow for curve -->
    <filter id="curveGlowWide" x="-50%" y="-50%" width="200%" height="200%">
      <feGaussianBlur in="SourceGraphic" stdDeviation="10" result="blur"/>
      <feColorMatrix in="blur" type="matrix"
        values="1 0 0 0 0
                0 1 0 0 0
                0 0 1 0 0
                0 0 0 0.45 0"/>
    </filter>

    <!-- Medium curve glow -->
    <filter id="curveGlow" x="-30%" y="-30%" width="160%" height="160%">
      <feGaussianBlur in="SourceGraphic" stdDeviation="4.5" result="blur1"/>
      <feGaussianBlur in="SourceGraphic" stdDeviation="1.8" result="blur2"/>
      <feMerge>
        <feMergeNode in="blur1"/>
        <feMergeNode in="blur2"/>
      </feMerge>
    </filter>

    <!-- Control point outer glow -->
    <filter id="pointOuterGlow" x="-100%" y="-100%" width="300%" height="300%">
      <feGaussianBlur in="SourceGraphic" stdDeviation="3" result="blur"/>
      <feMerge>
        <feMergeNode in="blur"/>
        <feMergeNode in="SourceGraphic"/>
      </feMerge>
    </filter>

    <!-- Gold point glow -->
    <filter id="goldGlow" x="-100%" y="-100%" width="300%" height="300%">
      <feGaussianBlur in="SourceGraphic" stdDeviation="4" result="blur"/>
      <feMerge>
        <feMergeNode in="blur"/>
        <feMergeNode in="SourceGraphic"/>
      </feMerge>
    </filter>

    <!-- Outer drop shadow for hex -->
    <filter id="hexShadow" x="-25%" y="-15%" width="150%" height="140%">
      <feDropShadow dx="0" dy="4" stdDeviation="12" flood-color="#000000" flood-opacity="0.60"/>
      <feDropShadow dx="0" dy="1" stdDeviation="4" flood-color="#4DD9FF" flood-opacity="0.06"/>
    </filter>

    <!-- Text glow filter -->
    <filter id="textGlow" x="-15%" y="-30%" width="130%" height="160%">
      <feGaussianBlur in="SourceGraphic" stdDeviation="4" result="blur"/>
      <feMerge>
        <feMergeNode in="blur"/>
        <feMergeNode in="SourceGraphic"/>
      </feMerge>
    </filter>

    <!-- Subtle text shadow -->
    <filter id="textShadow" x="-5%" y="-5%" width="110%" height="120%">
      <feDropShadow dx="0" dy="1" stdDeviation="2" flood-color="#000000" flood-opacity="0.5"/>
    </filter>

    <!-- Badge glow -->
    <filter id="badgeGlow" x="-10%" y="-20%" width="120%" height="140%">
      <feGaussianBlur in="SourceGraphic" stdDeviation="1.5" result="blur"/>
      <feMerge>
        <feMergeNode in="blur"/>
        <feMergeNode in="SourceGraphic"/>
      </feMerge>
    </filter>

    <!-- ============================================ -->
    <!-- HEXAGONAL GRID PATTERN (inside logo)         -->
    <!-- ============================================ -->

    <pattern id="hexGrid" width="36" height="62" patternUnits="userSpaceOnUse"
             patternTransform="translate(320,160)">
      <!-- Horizontal lines -->
      <line x1="0" y1="0" x2="36" y2="0" stroke="#1A1A22" stroke-width="0.5"/>
      <line x1="0" y1="31" x2="36" y2="31" stroke="#1A1A22" stroke-width="0.5"/>
      <!-- 60 degree lines -->
      <line x1="0" y1="62" x2="36" y2="0" stroke="#1A1A22" stroke-width="0.5"/>
      <line x1="0" y1="31" x2="18" y2="0" stroke="#1A1A22" stroke-width="0.5"/>
      <line x1="18" y1="62" x2="36" y2="31" stroke="#1A1A22" stroke-width="0.5"/>
      <!-- 120 degree lines -->
      <line x1="0" y1="0" x2="36" y2="62" stroke="#1A1A22" stroke-width="0.5"/>
      <line x1="18" y1="0" x2="36" y2="31" stroke="#1A1A22" stroke-width="0.5"/>
      <line x1="0" y1="31" x2="18" y2="62" stroke="#1A1A22" stroke-width="0.5"/>
    </pattern>

    <!-- ============================================ -->
    <!-- HEXAGON GEOMETRY (scaled for banner)          -->
    <!-- ============================================ -->

    <!--
      Hex logo centered at x=320, y=160 (banner vertical center)
      ~220px tall -> radius = 110
      Flat-top hex vertices: center + r * (cos(angle), sin(angle))
      r = 110, cx=320, cy=160

      Vertices:
        0 deg:   (320+110, 160)       = (430, 160)
        60 deg:  (320+55, 160-95.3)   = (375, 64.7)
        120 deg: (320-55, 160-95.3)   = (265, 64.7)
        180 deg: (320-110, 160)       = (210, 160)
        240 deg: (320-55, 160+95.3)   = (265, 255.3)
        300 deg: (320+55, 160+95.3)   = (375, 255.3)
    -->

    <clipPath id="hexClip">
      <polygon points="430,160 375,64.7 265,64.7 210,160 265,255.3 375,255.3"/>
    </clipPath>

  </defs>

  <!-- ============================================ -->
  <!-- BACKGROUND                                   -->
  <!-- ============================================ -->

  <!-- Base gradient -->
  <rect width="1280" height="320" fill="url(#bgGrad)"/>

  <!-- Grid pattern -->
  <rect width="1280" height="320" fill="url(#bgGrid)"/>

  <!-- Radial depth overlay -->
  <rect width="1280" height="320" fill="url(#depthGlow)"/>

  <!-- ============================================ -->
  <!-- GHOST HEXAGONS (scattered background)         -->
  <!-- ============================================ -->

  <!-- Ghost hex 1: large, upper-left -->
  <g transform="translate(120, 40) rotate(12, 0, 0)">
    <polygon points="55,0 27.5,-47.6 -27.5,-47.6 -55,0 -27.5,47.6 27.5,47.6"
             fill="none" stroke="#4DD9FF" stroke-width="0.8" opacity="0.035"/>
  </g>

  <!-- Ghost hex 2: medium, right side -->
  <g transform="translate(980, 80) rotate(-8, 0, 0)">
    <polygon points="40,0 20,-34.6 -20,-34.6 -40,0 -20,34.6 20,34.6"
             fill="none" stroke="#4DD9FF" stroke-width="0.7" opacity="0.04"/>
  </g>

  <!-- Ghost hex 3: small, lower-right -->
  <g transform="translate(1100, 240) rotate(20, 0, 0)">
    <polygon points="28,0 14,-24.2 -14,-24.2 -28,0 -14,24.2 14,24.2"
             fill="none" stroke="#4DD9FF" stroke-width="0.6" opacity="0.05"/>
  </g>

  <!-- Ghost hex 4: medium, lower-left -->
  <g transform="translate(180, 260) rotate(-15, 0, 0)">
    <polygon points="35,0 17.5,-30.3 -17.5,-30.3 -35,0 -17.5,30.3 17.5,30.3"
             fill="none" stroke="#4DD9FF" stroke-width="0.6" opacity="0.03"/>
  </g>

  <!-- Ghost hex 5: tiny, upper-center -->
  <g transform="translate(620, 30) rotate(5, 0, 0)">
    <polygon points="22,0 11,-19 -11,-19 -22,0 -11,19 11,19"
             fill="none" stroke="#4DD9FF" stroke-width="0.5" opacity="0.04"/>
  </g>

  <!-- ============================================ -->
  <!-- HEXAGON LOGO (hero element)                   -->
  <!-- ============================================ -->

  <!-- Outer shadow -->
  <polygon points="430,160 375,64.7 265,64.7 210,160 265,255.3 375,255.3"
           fill="none" filter="url(#hexShadow)"/>

  <!-- Main hex background -->
  <polygon points="430,160 375,64.7 265,64.7 210,160 265,255.3 375,255.3"
           fill="url(#hexBgGrad)"/>

  <!-- Hex border stroke -->
  <polygon points="430,160 375,64.7 265,64.7 210,160 265,255.3 375,255.3"
           fill="none" stroke="url(#hexBorderGrad)" stroke-width="2" stroke-linejoin="round"/>

  <!-- Clipped content inside hexagon -->
  <g clip-path="url(#hexClip)">

    <!-- Top highlight wash -->
    <rect x="210" y="64" width="220" height="192" fill="url(#topHighlight)"/>

    <!-- Hexagonal grid -->
    <rect x="210" y="64" width="220" height="192" fill="url(#hexGrid)" opacity="0.55"/>

    <!-- ============================================ -->
    <!-- AREA FILL UNDER CURVE                        -->
    <!-- ============================================ -->

    <!--
      Curve maps from original 512 logo to this 220px hex.
      Original hex: center (256,220), vertices span ~(26,20) to ~(486,420)
      Banner hex: center (320,160), vertices span ~(210,65) to ~(430,255)
      Scale factor: ~0.478, offset: x+152, y-54 (approximate)

      Control points placed to create a pleasing S-curve:
        Start:  (230, 240)  - bottom-left inside hex
        CP1:    (270, 210)
        CP2:    (290, 145)
        CP3:    (350, 175)
        End:    (415, 85)   - upper-right inside hex
    -->

    <path d="M 230 240 C 250 240, 260 220, 275 195
             C 290 170, 288 140, 310 125
             C 332 110, 335 160, 350 175
             C 365 190, 395 95, 415 80
             L 415 260 L 230 260 Z"
          fill="url(#areaFill)"/>

    <!-- ============================================ -->
    <!-- BEZIER CURVE - 3-layer glow treatment        -->
    <!-- ============================================ -->

    <!-- Layer 1: Wide ambient glow -->
    <path d="M 230 240 C 250 240, 260 220, 275 195
             C 290 170, 288 140, 310 125
             C 332 110, 335 160, 350 175
             C 365 190, 395 95, 415 80"
          fill="none" stroke="#4DD9FF" stroke-width="3.5" stroke-linecap="round"
          filter="url(#curveGlowWide)" opacity="0.55"/>

    <!-- Layer 2: Medium glow -->
    <path d="M 230 240 C 250 240, 260 220, 275 195
             C 290 170, 288 140, 310 125
             C 332 110, 335 160, 350 175
             C 365 190, 395 95, 415 80"
          fill="none" stroke="#4DD9FF" stroke-width="2.5" stroke-linecap="round"
          filter="url(#curveGlow)"/>

    <!-- Layer 3: Crisp curve -->
    <path d="M 230 240 C 250 240, 260 220, 275 195
             C 290 170, 288 140, 310 125
             C 332 110, 335 160, 350 175
             C 365 190, 395 95, 415 80"
          fill="none" stroke="url(#curveGrad)" stroke-width="2.2" stroke-linecap="round"/>

    <!-- Bright hot-core line -->
    <path d="M 230 240 C 250 240, 260 220, 275 195
             C 290 170, 288 140, 310 125
             C 332 110, 335 160, 350 175
             C 365 190, 395 95, 415 80"
          fill="none" stroke="#FFFFFF" stroke-width="0.6" stroke-linecap="round" opacity="0.22"/>

    <!-- ============================================ -->
    <!-- TANGENT HANDLE LINES                         -->
    <!-- ============================================ -->

    <!-- Point 1 handles -->
    <line x1="275" y1="195" x2="260" y2="220" stroke="#4DD9FF" stroke-width="0.5"
          stroke-dasharray="2.5,3" opacity="0.28"/>
    <line x1="275" y1="195" x2="290" y2="170" stroke="#4DD9FF" stroke-width="0.5"
          stroke-dasharray="2.5,3" opacity="0.28"/>

    <!-- Point 2 (active gold) handles -->
    <line x1="310" y1="125" x2="288" y2="140" stroke="#FFD94D" stroke-width="0.6"
          stroke-dasharray="2.5,3" opacity="0.35"/>
    <line x1="310" y1="125" x2="332" y2="110" stroke="#FFD94D" stroke-width="0.6"
          stroke-dasharray="2.5,3" opacity="0.35"/>

    <!-- Point 3 handles -->
    <line x1="350" y1="175" x2="335" y2="160" stroke="#4DD9FF" stroke-width="0.5"
          stroke-dasharray="2.5,3" opacity="0.28"/>
    <line x1="350" y1="175" x2="365" y2="190" stroke="#4DD9FF" stroke-width="0.5"
          stroke-dasharray="2.5,3" opacity="0.28"/>

    <!-- Handle endpoint dots -->
    <circle cx="260" cy="220" r="1.3" fill="#4DD9FF" opacity="0.22"/>
    <circle cx="290" cy="170" r="1.3" fill="#4DD9FF" opacity="0.22"/>
    <circle cx="288" cy="140" r="1.5" fill="#FFD94D" opacity="0.28"/>
    <circle cx="332" cy="110" r="1.5" fill="#FFD94D" opacity="0.28"/>
    <circle cx="335" cy="160" r="1.3" fill="#4DD9FF" opacity="0.22"/>
    <circle cx="365" cy="190" r="1.3" fill="#4DD9FF" opacity="0.22"/>

    <!-- ============================================ -->
    <!-- CONTROL POINTS                               -->
    <!-- ============================================ -->

    <!-- Point 1: cyan -->
    <circle cx="275" cy="195" r="12" fill="url(#pointGlowCyan)" opacity="0.85"/>
    <circle cx="275" cy="195" r="4.5" fill="none" stroke="#4DD9FF" stroke-width="1.2" opacity="0.50"/>
    <circle cx="275" cy="195" r="2.8" fill="#FFFFFF" opacity="0.95"/>
    <circle cx="275" cy="195" r="1.3" fill="#FFFFFF"/>

    <!-- Point 2: Active gold -->
    <circle cx="310" cy="125" r="15" fill="url(#pointGlowGold)" opacity="0.90"/>
    <circle cx="310" cy="125" r="5.5" fill="none" stroke="#FFD94D" stroke-width="1.5" opacity="0.60"/>
    <circle cx="310" cy="125" r="3.2" fill="#FFFFFF" opacity="0.97"/>
    <circle cx="310" cy="125" r="1.6" fill="#FFD94D" opacity="0.85"/>

    <!-- Point 3: cyan -->
    <circle cx="350" cy="175" r="12" fill="url(#pointGlowCyan)" opacity="0.85"/>
    <circle cx="350" cy="175" r="4.5" fill="none" stroke="#4DD9FF" stroke-width="1.2" opacity="0.50"/>
    <circle cx="350" cy="175" r="2.8" fill="#FFFFFF" opacity="0.95"/>
    <circle cx="350" cy="175" r="1.3" fill="#FFFFFF"/>

    <!-- Point 4: cyan (edge) -->
    <circle cx="415" cy="80" r="12" fill="url(#pointGlowCyan)" opacity="0.80"/>
    <circle cx="415" cy="80" r="4.5" fill="none" stroke="#4DD9FF" stroke-width="1.2" opacity="0.45"/>
    <circle cx="415" cy="80" r="2.8" fill="#FFFFFF" opacity="0.92"/>
    <circle cx="415" cy="80" r="1.3" fill="#FFFFFF"/>

    <!-- ============================================ -->
    <!-- VIGNETTE / INNER SHADOW                      -->
    <!-- ============================================ -->

    <polygon points="430,160 375,64.7 265,64.7 210,160 265,255.3 375,255.3"
             fill="url(#innerVignette)"/>

    <polygon points="430,160 375,64.7 265,64.7 210,160 265,255.3 375,255.3"
             fill="none" stroke="#000000" stroke-width="4" stroke-linejoin="round"
             opacity="0.12"/>

  </g>

  <!-- Re-draw border on top for crisp edge -->
  <polygon points="430,160 375,64.7 265,64.7 210,160 265,255.3 375,255.3"
           fill="none" stroke="url(#hexBorderGrad)" stroke-width="2" stroke-linejoin="round"/>

  <!-- Bright edge highlight on top edges -->
  <line x1="265" y1="64.7" x2="375" y2="64.7" stroke="#4DD9FF" stroke-width="1" opacity="0.20"/>
  <line x1="375" y1="64.7" x2="430" y2="160" stroke="#4DD9FF" stroke-width="0.6" opacity="0.12"/>
  <line x1="210" y1="160" x2="265" y2="64.7" stroke="#4DD9FF" stroke-width="0.6" opacity="0.12"/>

  <!-- ============================================ -->
  <!-- WORDMARK: td-CurveTool                     -->
  <!-- ============================================ -->

  <!-- Title: "td-CurveTool" — cyan "td" + white rest, single element for perfect kerning -->
  <text x="500" y="148"
        font-family="'Segoe UI', 'SF Pro Display', 'Helvetica Neue', Arial, sans-serif"
        font-size="80" font-weight="700" letter-spacing="2"
        filter="url(#textShadow)"><tspan fill="#4DD9FF">td</tspan><tspan fill="#FFFFFF">-CurveTool</tspan></text>

  <!-- Subtitle line 1 -->
  <text x="502" y="192"
        font-family="'Segoe UI', 'SF Pro Display', 'Helvetica Neue', Arial, sans-serif"
        font-size="34" font-weight="400" letter-spacing="0.5"
        fill="#4DD9FF" opacity="0.80">Interactive Curve Editor + LFO</text>

  <!-- Subtitle line 2 -->
  <text x="502" y="226"
        font-family="'Segoe UI', 'SF Pro Display', 'Helvetica Neue', Arial, sans-serif"
        font-size="20" font-weight="400" letter-spacing="0.3"
        fill="#AAAABB">Draw envelopes. Shape waveforms. Control everything.</text>

  <!-- ============================================ -->
  <!-- TOP-RIGHT: v1.1 BADGE                        -->
  <!-- ============================================ -->

  <rect x="1185" y="16" width="72" height="28" rx="14" ry="14"
        fill="none" stroke="#4DD9FF" stroke-width="1" opacity="0.55"/>
  <text x="1221" y="35" text-anchor="middle"
        font-family="'Segoe UI', 'SF Pro Display', 'Helvetica Neue', Arial, sans-serif"
        font-size="14" font-weight="600" letter-spacing="0.5"
        fill="#4DD9FF" opacity="0.80">v1.1</text>

  <!-- ============================================ -->
  <!-- BOTTOM ACCENT LINE (full width)               -->
  <!-- ============================================ -->

  <line x1="0" y1="318" x2="1280" y2="318" stroke="#4DD9FF" stroke-width="2" opacity="0.12"/>

  <!-- ============================================ -->
  <!-- BOTTOM STRIP                                  -->
  <!-- ============================================ -->

  <!-- Separator line -->
  <line x1="40" y1="272" x2="1240" y2="272" stroke="#4DD9FF" stroke-width="0.8" opacity="0.10"/>

  <!-- Left: REMvisual -->
  <text x="50" y="298"
        font-family="'Segoe UI', 'SF Pro Display', 'Helvetica Neue', Arial, sans-serif"
        font-size="16" font-weight="500" letter-spacing="1"
        fill="#888899">REMvisual</text>

  <!-- Center: Pill badges -->

  <!-- Badge 1: CHOP Output -->
  <rect x="430" y="278" width="152" height="32" rx="16" ry="16"
        fill="none" stroke="#4DD9FF" stroke-width="1.2" opacity="0.40"/>
  <text x="506" y="300" text-anchor="middle"
        font-family="'Segoe UI', 'SF Pro Display', 'Helvetica Neue', Arial, sans-serif"
        font-size="17" font-weight="600" letter-spacing="0.5"
        fill="#4DD9FF" opacity="0.85">CHOP Output</text>

  <!-- Badge 2: 12 Presets -->
  <rect x="596" y="278" width="130" height="32" rx="16" ry="16"
        fill="none" stroke="#4DD9FF" stroke-width="1.2" opacity="0.40"/>
  <text x="661" y="300" text-anchor="middle"
        font-family="'Segoe UI', 'SF Pro Display', 'Helvetica Neue', Arial, sans-serif"
        font-size="17" font-weight="600" letter-spacing="0.5"
        fill="#4DD9FF" opacity="0.85">12 Presets</text>

  <!-- Badge 3: LFO + BPM Sync -->
  <rect x="740" y="278" width="164" height="32" rx="16" ry="16"
        fill="none" stroke="#4DD9FF" stroke-width="1.2" opacity="0.40"/>
  <text x="822" y="300" text-anchor="middle"
        font-family="'Segoe UI', 'SF Pro Display', 'Helvetica Neue', Arial, sans-serif"
        font-size="17" font-weight="600" letter-spacing="0.5"
        fill="#4DD9FF" opacity="0.85">LFO + BPM Sync</text>

  <!-- Right: version + license -->
  <text x="1230" y="298" text-anchor="end"
        font-family="'Segoe UI', 'SF Pro Display', 'Helvetica Neue', Arial, sans-serif"
        font-size="16" font-weight="400" letter-spacing="0.5"
        fill="#888899">v1.1 · MIT License</text>

</svg>